<?xml version="1.0" encoding="utf-8"?>
<!-- Generator: Adobe Illustrator 17.1.0, SVG Export Plug-In . SVG Version: 6.00 Build 0)  -->
<!DOCTYPE svg PUBLIC "-//W3C//DTD SVG 1.1//EN" "http://www.w3.org/Graphics/SVG/1.1/DTD/svg11.dtd">
<svg version="1.1" id="Ebene_1" xmlns="http://www.w3.org/2000/svg" xmlns:xlink="http://www.w3.org/1999/xlink" x="0px" y="0px"
	 viewBox="0 573.2 2304 1157.6" enable-background="new 0 573.2 2304 1157.6" xml:space="preserve">
<rect y="573.2" width="2304" height="1157.6"/>
<g>
	<g>
		<defs>
			<rect id="SVGID_1_" y="573.2" width="2304" height="1157.6"/>
		</defs>
		<clipPath id="SVGID_2_">
			<use xlink:href="#SVGID_1_"  overflow="visible"/>
		</clipPath>
		
			<path clip-path="url(#SVGID_2_)" fill="none" stroke="#FFFFFF" stroke-width="5" stroke-linecap="round" stroke-linejoin="round" stroke-miterlimit="10" d="
			M1831.9,1185.6c0,34.2-16.2,54.3-27.8,54.3c-8.6,0-19.7-5.1-24.8-19.2 M1997.4,1215.9c0,38.9-20.1,63.3-29.1,63.3
			c-8.6,0-23.1-12.8-26.1-22.7 M2027.3,928.1c21.4-3.8,43.6-18,46.6-23.5 M2027.8,961.1c23.1,2.6,46.6,19.7,56.4,35.9 M2001.2,867
			c16.7,17.5,24.8,41.9,24.8,74c0,30.8-9.4,63.7-20.5,74 M2020.5,985c18,11.5,51.3,56.9,42.3,154.8 M2020.5,899.1
			c13.7-6,34.2-25.7,34.2-47.5 M1967,887.5c32.1-12,59-46.6,57.7-80.8 M1974.3,838.8c9.8-11.1,14.5-56,0-75.3 M1518,1362.2
			c-23.9,31.6-47.5,70.1-62,126.1 M1625.4,1008.1c-26.5,12-55.2,24.4-59,16.2c-1.3-2.6,0.9-8.6,18-18.8 M1808.4,1505.4
			c3.4,0.9,6.8,1.3,10.7,1.3c27.8,0,36.3-15,55.6-15c20.1,0,24.8,16.7,18.4,31.6 M1677.5,1500.3c-7.3,3.8-15.4,6.4-24.8,6.4
			c-27.8,0-35.9-15-54.7-14.5c-20.1,0.4-23.5,18-18.8,30.8 M1663,1473.4c0,0,21,33.4,55.2,33.4c26.9,0,38.1-15,55.2-15
			c20.1,0,23.9,15.8,18.4,31.2 M2061.5,1140.7c-14.5-0.4-35.5-23.1-36.8-54.3 M2024.8,1132.1c0,44-15.4,68.8-27.8,68.8
			c-9,0-24.8-13.7-26.9-37.6 M1969.6,1178.3c-0.4,44.9-17.1,66.3-27.4,65c-15-1.7-27.4-21.4-27.4-42.3 M1769.5,1411.3v35.5
			c0,10.3-1.7,20.5-6,26.9 M1802.8,1411.3v35.5c0,21,6.8,37.2,29.9,37.2c15.8,0,26.1-13.3,47.9-13.3c18.8,0,27.8,12.8,27.8,26.5
			c0,12.8-6.8,22.2-16.2,26.1c0,0-2.6-16.7-18-16.7c-17.1,0-20.5,15.4-47.5,15.4c-8.1,0-16.2-1.7-23.5-5.1 M1802.8,1448.1
			c-4.3,6.4-26.5,7.7-32.9,0 M1702.8,1448.1c-4.3,6.4-26.9,7.7-33.4,0 M1702.3,1411.3v35.5c0,21,6.8,37.2,29.9,37.2
			c16.7,0,29.5-12.8,48.3-12.8c17.1,0,27.8,12.8,27.8,26.1c0,9.8-6.8,22.2-16.2,26.1c0,0-2.6-16.7-18-16.7
			c-16.7,0-20.5,15.4-47.5,15.4c-26.9,0-54.7-20.1-62.9-48.7 M1669,1411.3v35.5c0,21-6.8,37.2-29.9,37.2
			c-16.7,0-28.7-12.8-45.8-12.8c-17.1,0-28.7,12.8-28.7,26.1c0,9.8,5.6,22.2,15,26.1c0,0,2.6-16.7,18-16.7
			c16.7,0,20.5,15.4,47.5,15.4c14.1,0,28.7-5.6,40.2-15 M1841.3,1352.3c0,33.4-20.1,60.3-53.5,60.3h-3c-26.5,0-45.8-21.8-46.6-40.6
			 M1737.8,1374.1c-2.1,18.8-18.4,38.5-50.5,38.5h-3c-32.1,0-48.7-19.2-50.5-38.1 M1442.8,1481.5c2.6-30.8,7.7-62.9,16.7-86.8
			 M1487.3,1373.7c-18.4,31.2-28.7,62.9-38.5,113.7 M1544.1,1366c-29.5,30.8-59.9,72.3-80,118.9 M1440.2,1411.8
			c-5.6,26.5-4.3,75.3,9.8,77.4c6.4,0.9,12.4-1.7,20.1-9.4c23.1-22.2,58.6-78.7,113.7-110.8 M1557,1333.1
			c-2.6,15.8-21,27.4-27.4,29.1 M1611.7,1319c0,23.5-16.2,48.7-27.4,48.7c-9.4,0-24.4-18-26.5-35.5 M1666.4,1324.5
			c-0.9,24.8-16.7,48.7-27.8,48.3c-11.5-0.4-27.4-19.7-27.4-45.8 M1721.6,1327.1c0,27.8-16.2,46.2-27.8,46.2
			c-11.5,0-27.4-20.1-27.4-43.2 M1887.1,1171.9c0,34.2-16.2,54.3-27.4,54.3c-11.5,0-27.4-15.4-27.4-38.9 M1693.8,1266.4
			c-0.9,25.2-16.7,41.9-27.4,41.9c-8.6,0-18.8-6.4-23.9-17.1 M1749.4,1272.8c0,23.5-16.2,42.3-27.4,42.3
			c-10.3,0-24.8-15.4-27.4-35.5 M1941.8,1257c0,38.1-18.8,62-27.4,62c-8.1,0-23.1-13.3-27.4-29.5 M1887.1,1295
			c0,25.2-18.4,47.9-27.4,47.9c-11.5,0-27.8-18.8-27.8-42.3 M1831.9,1304c0,33.4-15.8,54.7-27.4,55.2c-11.5,0.4-27.8-18.8-27.8-42.3
			 M1776.7,1316.4c0,35.9-18.4,52.2-27.8,52.2c-11.5,0-27.4-18.8-27.4-41.9 M1804.5,1260c0,32.5-16.2,53.5-27.4,53.5
			c-11.5,0-27.8-18.8-27.8-42.3 M1859.3,1252.3c0,26.9-16.2,49.6-27.4,49.6c-11.5,0-27.4-18.8-27.4-42.3 M1914.4,1222.3
			c0,27.8-17.5,53.9-27.4,53.9c-11.5,0-27.4-15.4-27.4-38.9 M1942.2,1133.8c0,37.2-16.2,67.6-27.4,67.6c-11.5,0-27.8-20.5-27.8-47
			 M1997.4,1106c0,27.8-16.2,57.3-27.4,57.3c-11.5,0-27.4-18.8-27.4-42.3 M2021.8,1051.7c7.7,44.9-14.1,69.7-24.4,69.7
			c-9.8,0-25.2-24.8-27.4-46.2 M1528.7,1348.1v15 M1639.1,1295v79.1 M1749.4,1237.7v132.6 M1583.9,1320.7v49.2 M1611.3,1305.7v21.4
			 M1666.4,1281.4v48.7 M1694.2,1267.7v106.9 M1721.6,1252.3v80.4 M1776.7,1220.2v98.8 M1804.5,1200.1v160.4 M1831.9,1175.3V1310
			 M1969.6,1067.1v214.2"/>
	</g>
	<g>
		<defs>
			<rect id="SVGID_3_" y="573.2" width="2304" height="1157.6"/>
		</defs>
		<clipPath id="SVGID_4_">
			<use xlink:href="#SVGID_3_"  overflow="visible"/>
		</clipPath>
		<path clip-path="url(#SVGID_4_)" fill="none" stroke="#FFFFFF" stroke-width="5" stroke-miterlimit="10" d="M1676.3,1010.2
			C1669,992.7,1682.7,1028.2,1676.3,1010.2z"/>
	</g>
	<g>
		<defs>
			<rect id="SVGID_5_" y="573.2" width="2304" height="1157.6"/>
		</defs>
		<clipPath id="SVGID_6_">
			<use xlink:href="#SVGID_5_"  overflow="visible"/>
		</clipPath>
		
			<path clip-path="url(#SVGID_6_)" fill="none" stroke="#FFFFFF" stroke-width="5" stroke-linecap="round" stroke-linejoin="round" stroke-miterlimit="10" d="
			M1858.4,972.2c29.9,0,53.9,23.5,53.9,52.2c0,28.7-24.4,52.2-53.9,52.2c-29.9,0-53.9-23.5-53.9-52.2
			C1804.5,995.7,1828.5,972.2,1858.4,972.2z M1931.5,904.6c-20.5,0-37.6,16.2-37.6,36.3c0,20.1,16.7,36.3,37.6,36.3
			c43.2,0,73.1-32.9,73.1-32.9c1.7-1.7,1.7-4.7,0-6.4C2004.7,937.6,1974.7,904.6,1931.5,904.6z M1935,918.3
			c25.2,0,46.2,19.7,46.2,19.7c1.7,1.7,1.7,4.3,0,6c0,0-21,19.7-46.2,19.7c-15,0-26.1-9.4-26.1-22.7
			C1909.3,927.3,1920,918.3,1935,918.3z"/>
	</g>
	<g>
		<defs>
			<rect id="SVGID_7_" y="573.2" width="2304" height="1157.6"/>
		</defs>
		<clipPath id="SVGID_8_">
			<use xlink:href="#SVGID_7_"  overflow="visible"/>
		</clipPath>
		
			<ellipse clip-path="url(#SVGID_8_)" fill="none" stroke="#000000" stroke-width="5" stroke-linecap="round" stroke-linejoin="round" stroke-miterlimit="10" cx="1859.3" cy="1022.6" rx="29.5" ry="28.7"/>
	</g>
	<g>
		<defs>
			<rect id="SVGID_9_" y="573.2" width="2304" height="1157.6"/>
		</defs>
		<clipPath id="SVGID_10_">
			<use xlink:href="#SVGID_9_"  overflow="visible"/>
		</clipPath>
		
			<path clip-path="url(#SVGID_10_)" fill="none" stroke="#FFFFFF" stroke-width="5" stroke-linecap="round" stroke-linejoin="round" stroke-miterlimit="10" d="
			M1855.4,905.1c29.1,0,52.6-23.9,52.6-53.9c0-29.5-23.5-53.9-52.6-53.9s-52.6,23.9-52.6,53.9
			C1802.8,881.1,1826.4,905.1,1855.4,905.1z M1855,948.2c41.1,0,73.6,33.8,73.6,76.1c0,41.9-32.5,76.1-73.6,76.1
			s-73.1-33.8-73.1-76.1C1781.9,982,1814,948.2,1855,948.2z"/>
	</g>
	<g>
		<defs>
			<rect id="SVGID_11_" y="573.2" width="2304" height="1157.6"/>
		</defs>
		<clipPath id="SVGID_12_">
			<use xlink:href="#SVGID_11_"  overflow="visible"/>
		</clipPath>
		
			<ellipse clip-path="url(#SVGID_12_)" fill="none" stroke="#000000" stroke-width="5" stroke-linecap="round" stroke-linejoin="round" stroke-miterlimit="10" cx="1856.3" cy="850.3" rx="29.5" ry="28.7"/>
	</g>
	<g>
		<defs>
			<rect id="SVGID_13_" y="573.2" width="2304" height="1157.6"/>
		</defs>
		<clipPath id="SVGID_14_">
			<use xlink:href="#SVGID_13_"  overflow="visible"/>
		</clipPath>
		
			<path clip-path="url(#SVGID_14_)" fill="none" stroke="#FFFFFF" stroke-width="5" stroke-linecap="round" stroke-linejoin="round" stroke-miterlimit="10" d="
			M1739.5,784.5c-50.5,37.2-74.4,92.8-74.4,155.2c0,16.7,1.7,32.9,5.6,48.7 M1701.9,1057.3c4.7,6.4,10.3,12.8,15.8,18.8
			 M1675.8,1007.3c-2.1-6.4-3.8-12.8-5.6-19.2 M1740.4,1095.8c-8.1-6-15.8-12.4-22.7-19.7 M1690.8,1040.6c-3-5.1-6-10.7-8.6-16.2
			 M1690.8,1040.6c3.4,6,6.8,11.5,11.1,16.7 M1675.8,1007.3c2.1,5.6,4.3,11.5,6.8,16.7 M1539.4,1091.5c-9-9.4,29.1-67.6,130.9-103.1
			 M1600.6,1070.5c-21,14.1-48.7,29.5-60.7,21l-0.4-0.4 M1548.4,1135.5c-7.7-17.5,42.8-70.1,133.8-111.2 M1607,1117.1
			c-22.2,14.5-49.6,29.9-57.3,20.1c-0.4-0.4-0.9-1.3-1.3-1.7 M1701.9,1057.3c-92.4,48.3-149.2,100.1-137.7,118.4 M1633.1,1156.1
			c-23.1,14.5-59.4,32.5-68.4,20.5c0,0-0.4-0.4-0.4-0.9 M1633.1,1156.1L1633.1,1156.1 M1710.5,1102.2c2.6-1.7,5.1-3,7.7-4.7l15-7.3
			 M1696.8,1110.3c-23.9,14.5-47.5,30.8-63.7,45.8 M1791.7,1105.2c-2.1,40.6-30.4,61.1-55.2,61.1c-18,0-32.5-9.8-38.5-24.4
			 M1696.8,1110.3c-1.3,4.3-2.6,9-2.6,14.5c0,6,1.3,12,3.4,17.1 M1697.6,1142c-112.9,65.9-253.1,154.8-298.5,310.9 M1710.5,1102.2
			c3,4.7,6.4,12.4,15,12.4c36.8,0-8.6-147.5,91.1-174.9 M1696.8,1110.3c2.6-7.7,6.8-12.4,9.8-12c1.7,0.4,2.6,1.7,3.8,3.8
			 M1633.1,1156.1c-17.5,15.8-27.4,30.4-21,39.8c14.5,22.2,105.6-30.4,105.6-30.4 M1539.4,1091.5
			c-94.1,84.7-149.7,207.4-156.1,350.2 M1539.4,1091.5c38.9-35.1,84.7-63.3,136.4-83.8 M1548.4,1135.5
			c43.2-38.5,91.9-70.1,142.4-94.9 M1548.4,1135.5c-83.8,75.3-146.2,177.9-160.4,315.2 M1564.2,1176.2
			c49.6-41.1,103.9-72.7,153.9-100.1 M1564.2,1176.2c-78.7,64.6-146.7,151.8-170.6,277.5 M1507.8,1358.3
			c75.3,15.4,162.9,15.4,162.9,15.4c198.8,0,418.6-86,413.5-392.1c-2.6-148-88.1-245.9-215.1-245.9 M1767.3,904.2
			c-12.8-4.3-29.1-13.3-35.9-26.1c0,0,5.6-11.1,18.4-17.5 M1713.5,939.3c0,0,15-23.5,56.4-30.8 M1713.5,939.3
			c0,0,15.4,23.9,57.7,30.8 M1776.7,1091.5c-3.4,32.9-15.8,57.3-42.8,57.3c-22.7,0-37.6-15.8-30.8-48.3 M1707.9,1099.2
			c-3,20.1,6.8,32.5,23.1,32.5c20.5,0,31.2-24.8,31.2-68.4c13.3,40.2,54.3,62.9,91.1,62.9c60.3,0,99.6-40.6,99.6-96.6
			c0-18.8-5.1-36.3-13.7-50.9 M1816.5,940.1c-103.5-31.6-54.3-174.9-91.1-174.9c-12.4,0-14.1,15.4-19.2,16.2
			c-4.7,0.9-12-12.8-12-27.4c0-23.5,18-40.2,42.3-40.2c24.4,0,47.9,14.1,54.7,61.1 M1776.7,788.3c-1.7-31.2-15.8-57.3-42.8-57.3
			c-22.7,0-37.6,15.8-30.8,48.3 M1707.9,780.6c-3-20.1,6.8-32.5,23.1-32.5c20.5,0,29.9,22.2,30.8,65.9
			c15.4-38.1,54.7-59.9,91.1-59.9c60.3,0,99.6,40.6,99.6,96.6c0,21.8-6.4,36.3-14.5,50.9 M1744.7,1050.9c-9,4.3-19.7,12-26.5,23.9
			 M1768.6,973.9c-13.3,4.3-30.4,12.8-37.6,26.5c0,0,6,11.1,18.8,17.5 M1667.3,972.2h102.6 M1734,939.7c-31.2,0-53.5,10.7-66.7,32.9
			 M1667.7,906.8c12.8-23.1,40.6-30.4,63.3-28.2 M1667.3,972.2c12.8,23.1,41.1,29.9,64.1,27.8 M1744.2,828.9
			c-6.8-4.7-20.1-15-25.7-24.4 M1749.4,1020.9c-8.6,2.1-40.6,10.3-56,19.7 M1693.8,1041c0,0,13.7,13.7,51.7,7.3 M1731,1000.4
			c-11.1,3.4-31.2,15.4-38.5,38.1 M1749,858.4c-8.6-2.1-40.2-10.3-55.6-19.7 M1693.8,837.9c0,0,13.3-13.7,50.5-7.3 M1731,878.5
			c-11.1-3.4-31.2-15.4-38.5-38.1 M1667.7,906.8h99.6 M1814,939.7h-80c-31.2,0-52.2-9-66.3-32.9 M1914.4,1131.7
			c-8.6,4.7-18,8.1-27.8,10.3 M1941.8,1112c-8.1,8.1-17.5,14.5-27.4,19.7 M1886.6,1142c-8.1,1.7-16.7,3-25.7,3c-0.9,0-1.3,0-2.1,0
			 M1834.9,1142.8c-12-1.7-23.5-5.1-34.6-9.8 M1788.3,1126.6c3.8,2.6,8.1,4.7,12,6.4 M1834.9,1142.8c6.4,0.9,12.8,1.7,19.7,1.7
			 M1854.6,1144.5c1.3,0,3,0,4.3,0 M1973,1021.4c0.4,5.1,0.9,10.3,0.9,15c0,30.4-12.4,56.4-31.6,75.3 M1956.8,975.2
			c3.4,4.7,6.4,9.8,8.6,15.4 M1965.8,990.6c3.8,9.8,6.4,20.5,7.3,31.2 M2024.8,1217.6v-134.7c0-51.7-20.1-82.5-59-92.4 M1997,1215.9
			v-118.9c0-27.8-3.4-61.6-23.9-75.7 M1687.8,1206.5c0,0.9,0.4,1.7,0.9,2.6c11.1,19.7,89.8-19.7,146.2-66.3 M1719.4,1164.2
			c-18.8,16.7-33.4,32.5-31.2,42.8 M1666.4,967.5c-202.7,63.3-301,272-283.1,473.8c0.9,7.3,4.7,13.7,12.8,13.7c4.3,0,8.6-1.3,13.7-9
			c12.4-19.2,29.5-36.3,49.2-52.6c8.6-7.3,18-14.1,27.8-20.5c114.6-79.1,303.6-125.3,368.2-227.9 M1800.7,1133
			c-31.6,26.9-71,50.5-112.5,73.6 M1406.4,1449.8c40.2-119.7,168.9-180.5,281.4-243.3 M1886.6,1142v151.8 M1859.3,1342.9v-198.4
			 M1914.4,1131.7v185.2 M1941.8,1112v145 M1956.8,905.5c13.3-20.1,16.7-40.6,16.7-61.6c0-63.7-53.5-108.2-111.2-108.2
			c-34.2,0-54.3,6.8-75.3,19.2 M1852.9,929c44,0,79.5-34.6,79.5-77.8c0-42.8-35.5-77.8-79.5-77.8s-78.7,34.6-78.7,77.8
			C1774.2,893.9,1808.8,929,1852.9,929z"/>
	</g>
</g>
<g enable-background="new    ">
	<path fill="#FFFFFF" d="M293.7,827.9v5.7l-25.3,3V825h-1.1c-4.1,8.3-10.4,11.6-18.2,11.6c-18.2,0-30.8-16.7-30.8-36
		c0-27.1,19.6-39.1,35.1-39.1c5.3,0,11.8,1.2,14.9,3.9v-19.6c0-6.6-3-8.9-9.2-8.9h-3.9v-5c7.1-1.1,19.5-4.5,24-6h4.4v15.2v77.5
		C283.6,826.4,287.8,827.9,293.7,827.9z M268.4,818.2v-34.8c0-9.7-5.9-14.2-14.8-14.2c-9.2,0-20.5,7.8-20.5,26.5
		c0,13.7,7.5,26.7,22.3,26.7C260.7,822.5,265.1,821.4,268.4,818.2z"/>
</g>
<g enable-background="new    ">
	<path fill="#FFFFFF" d="M301.3,799.5c0-21.9,16.7-38,36.3-38c19.5,0,36.3,16.1,36.3,38c0,21.9-16.9,38.1-36.3,38.1
		C318,837.7,301.3,821.4,301.3,799.5z M356.2,799.5c0-17.8-6.8-29.7-18.5-29.7c-12.4,0-18.5,12.5-18.5,29.7
		c0,17.9,6.6,29.9,18.5,29.9C349.8,829.4,356.2,816.9,356.2,799.5z"/>
</g>
<g enable-background="new    ">
	<path fill="#FFFFFF" d="M383.8,802.1c0-23.4,14.3-40.6,35.1-40.6c12.7,0,23.5,6.9,23.5,18.4c0,4.8-2.9,8.7-8.1,8.7
		c-4.5,0-7.7-3.2-7.8-8.3c0-1.8,0-4.1-0.6-5.9c-0.9-2.7-3-5.6-8.6-5.6c-11.3,0-19.6,10-19.6,24.7c0,16.9,9.5,28.2,22.6,28.2
		c9.3,0,16.3-5.6,17.6-11.9h5c-1.5,16.3-13,27.7-27.7,27.7C396.2,837.7,383.8,821.1,383.8,802.1z"/>
	<path fill="#FFFFFF" d="M526.7,827.9v5.7l-25.3,3v-10.3h-1.1c-3.3,5.1-10.7,10.3-19.6,10.3c-11.8,0-20.7-8.6-20.7-21.9v-36.5
		c0-6.6-3-8.6-7.2-8.7l-3.9-0.2v-5.7h7.4c7.5,0,19.1-0.6,19.1-0.6c-0.2,2-0.2,6.2-0.2,15.8v31.8c0,10.3,5.6,14,12.4,14
		c4.4,0,10.3-1.8,13.7-5.6v-40.9c0-6.6-3-8.6-7.2-8.7l-3.9-0.2v-5.7h9.2c5,0,12.5-0.3,17.3-0.6c-0.2,2-0.2,6.2-0.2,15.8v39.8
		C516.6,826.4,520.9,827.9,526.7,827.9z"/>
</g>
<g enable-background="new    ">
	<path fill="#FFFFFF" d="M652.2,829.7v5.7h-34.1v-5.7c8.1,0,8.7-3.9,8.7-9.5v-31.4c0-10.9-5.1-14.6-12.4-14.6c-4.2,0-9.3,1.8-13.4,6
		c0.2,0.9,0.2,1.8,0.2,2.9v37.1c0,6.2,0,9.5,9.7,9.5v5.7h-33.6v-5.7c8.1,0,8.7-3.9,8.7-9.5v-31.4c0-10.9-5.1-14.6-12.4-14.6
		c-4.8,0-10.1,2.4-13.3,5.9v40.4c0,6.8,2,9.2,8.6,9.2h1.2v5.7h-35.6v-5.7c8,0,10.6-2.6,10.6-9.2v-38.3c0-6.6-3-8.9-9.2-8.9h-1.8v-5
		c5.1-1.1,17.3-4.5,21.9-6h4.4v10.4h1.1c3.9-5.9,10.9-10.7,19.8-10.7c9.7,0,16,4.2,18.7,11.9h1.1c5.3-7.1,12.2-11.9,21.1-11.9
		c13,0,20.1,7.8,20.1,21.1v36.3c0,5.6,0,10.3,9.3,10.3H652.2z"/>
</g>
<g enable-background="new    ">
	<path fill="#FFFFFF" d="M714.1,809.5h4.5c-1.2,9.8-7.8,28.2-28.5,28.2c-16.7,0-31.4-13.7-31.4-36.3c0-22.8,14.3-39.8,33.5-39.8
		c15.4,0,26.4,10.7,26.4,26.2c0,1.1-0.2,2.7-0.3,3.3h-46.1c-0.2,1.4-0.2,2.7-0.2,3.8c0,14.6,8.6,26.8,23.4,26.8
		C705.2,821.7,711.2,816.1,714.1,809.5z M673.1,784.2h30.6c-0.2-6.9-3-15.1-13.4-15.1C681.7,769.1,674.9,775.6,673.1,784.2z"/>
</g>
<g enable-background="new    ">
	<path fill="#FFFFFF" d="M805.9,829.7v5.7h-34.5v-5.7c8.6,0,9.2-3.9,9.2-9.5v-31.4c0-10.9-5.4-14.6-13.1-14.6
		c-5.1,0-10.9,2.4-14.2,5.9v40.4c0,6.8,2,9.2,8.6,9.2h1.2v5.7h-35.6v-5.7c8,0,10.6-2.6,10.6-9.2v-38.3c0-6.6-3-8.9-9.2-8.9H727v-5
		c5.1-1.1,17.3-4.5,21.9-6h4.4v10.4h0.9c4.1-5.9,11.5-10.7,20.8-10.7c13.4,0,20.8,7.8,20.8,21.1v36.3c0,5.6,0,10.3,9.3,10.3H805.9z"
		/>
</g>
<g enable-background="new    ">
	<path fill="#FFFFFF" d="M820.5,819.3l1.5-43.9h-13.7v-5.7c7.8-5.7,16.3-13.6,22.5-20.5h4.8v14.5h19.1v11.8h-19.1v40.7
		c0,5.6,2.6,8.7,7.7,8.7c4.2,0,6.8-2.7,8.1-5.4h3.6c-0.8,6.6-6,18.1-17.5,18.1C828.7,837.5,820.1,832.4,820.5,819.3z"/>
</g>
<g enable-background="new    ">
	<path fill="#FFFFFF" d="M864.7,819.4c0-16,15.2-18.8,28-22.5l9-2.6v-11.9c0-8.7-4.8-13.7-12.5-13.7c-5.9,0-11.3,3.3-11.3,9
		c0,4.7,2.9,5.3,2.9,8c0,3.9-3.5,6.3-7.2,6.3c-4.8,0-8.9-3.8-8.9-10.6c0-9.8,8.6-20.1,26.1-20.1c15.4,0,25.8,7.7,25.6,23.5l-0.6,35
		c0,2.6,0.8,5,4.2,5c2.1,0,4.4-1.2,5.4-3l2.7,1.4c-0.3,4.4-2.7,14.2-13,14.2c-6,0-12.5-3.8-12.5-13.4c-3.3,7.4-9.2,13-19,13
		C873.6,837.1,864.7,829.5,864.7,819.4z M901.8,817.9V801l-6.5,1.8c-8.9,2.6-15.5,4.8-15.5,12.5c0,5.1,4.1,9.2,9.8,9.2
		C895.4,824.6,899.8,820.6,901.8,817.9z"/>
</g>
<g enable-background="new    ">
	<path fill="#FFFFFF" d="M965.3,829.7h4.2c7.8,0,12.8-3.5,12.8-10.4v-63.5c0-5.3-3.3-6.2-8.3-4.1l-13.7,5.7v-10.1
		c10.1-4.5,24.4-12.4,32.3-17h5.7v89c0,6.9,5,10.4,12.8,10.4h3.5v5.7h-49.3V829.7z"/>
	<path fill="#FFFFFF" d="M1099,793.8v15.1h-18.2v26.5h-16v-26.5h-45.7v-18.2l50.2-59.6h11.5v62.7H1099z M1064.8,793.8v-43.4
		l-36.5,43.4H1064.8z"/>
</g>
<g enable-background="new    ">
	<path fill="#FFFFFF" d="M326.1,1054.4v5.7h-46v-5.7h5.4c6.8,0,8.4-3.8,5-13.4l-7.7-21.1h-34.7l-7.7,20.4c-3.3,8.9-2.4,14.2,6,14.2
		h4.7v5.7h-37.4v-5.7c8.9,0,12.1-2.9,16.9-15.2l32.6-83.4H277l32,83.7C312.9,1049.7,316.9,1054.1,326.1,1054.4z M279.5,1010.6
		L266,973.1l-14.2,37.5H279.5z"/>
</g>
<g enable-background="new    ">
	<path fill="#FFFFFF" d="M335.6,1044l1.5-43.9h-13.7v-5.7c7.8-5.7,16.3-13.6,22.5-20.5h4.8v14.5h19.1v11.8h-19.1v40.7
		c0,5.6,2.6,8.7,7.7,8.7c4.2,0,6.8-2.7,8.1-5.4h3.6c-0.8,6.6-6,18.1-17.5,18.1C343.7,1062.2,335.1,1057.1,335.6,1044z"/>
</g>
<g enable-background="new    ">
	<path fill="#FFFFFF" d="M454.8,1054.4v5.7h-34.5v-5.7c8.6,0,9.2-3.9,9.2-9.5v-31.4c0-10.9-5.4-14.6-13.1-14.6
		c-5.1,0-10.9,2.4-14.2,5.9v40.4c0,6.8,2,9.2,8.6,9.2h1.2v5.7h-35.6v-5.7c8,0,10.6-2.6,10.6-9.2v-74.6c0-6.6-3-8.9-9.2-8.9h-3.9v-5
		c7.1-1.1,19.5-4.5,24-6h4.4v15.2v31.5h0.9c4.1-5.9,11.5-10.7,20.8-10.7c13.4,0,20.8,7.8,20.8,21.1v36.3c0,5.6,0,10.3,9.3,10.3
		H454.8z"/>
	<path fill="#FFFFFF" d="M517.5,1034.2h4.5c-1.2,9.8-7.8,28.2-28.5,28.2c-16.7,0-31.4-13.7-31.4-36.3c0-22.8,14.3-39.8,33.5-39.8
		c15.4,0,26.4,10.7,26.4,26.2c0,1.1-0.2,2.7-0.3,3.3h-46.1c-0.2,1.4-0.2,2.7-0.2,3.8c0,14.6,8.6,26.8,23.4,26.8
		C508.6,1046.4,514.7,1040.8,517.5,1034.2z M476.5,1008.8h30.6c-0.2-6.9-3-15.1-13.4-15.1C485.1,993.7,478.3,1000.2,476.5,1008.8z"
		/>
	<path fill="#FFFFFF" d="M609.3,1054.4v5.7h-34.5v-5.7c8.6,0,9.2-3.9,9.2-9.5v-31.4c0-10.9-5.4-14.6-13.1-14.6
		c-5.1,0-10.9,2.4-14.2,5.9v40.4c0,6.8,2,9.2,8.6,9.2h1.2v5.7h-35.6v-5.7c8,0,10.6-2.6,10.6-9.2v-38.3c0-6.6-3-8.9-9.2-8.9h-1.8v-5
		c5.1-1.1,17.3-4.5,21.9-6h4.4v10.4h0.9c4.1-5.9,11.5-10.7,20.8-10.7c13.4,0,20.8,7.8,20.8,21.1v36.3c0,5.6,0,10.3,9.3,10.3H609.3z"
		/>
	<path fill="#FFFFFF" d="M619.8,1058.3l-1.5-22.5h7.5c0.2,10.3,6.5,18.4,16.4,18.4c6.2,0,11-3.5,11-9.7c0-5.6-4.4-8.4-9.3-10.9
		l-10.4-5c-8.9-4.2-14.8-10.6-14.8-19.5c0-14,11.9-23.1,26.1-23.1c11.2,0,17.3,2.4,19.9,3.8v18.7h-7.1c0-8.3-3.5-15.2-13.6-15.2
		c-6.8,0-12.1,4.5-12.1,10.9c0,3.3,2,6.6,7.8,9.3l10.6,4.8c11,5,16.1,10.9,16.1,20.5c0,13.6-11.5,23.4-26.5,23.4
		C630.3,1062.4,624.7,1060.2,619.8,1058.3z"/>
</g>
<g enable-background="new    ">
	<path fill="#FFFFFF" d="M746.7,953.5h9.8l-44.8,108.9h-9.8L746.7,953.5z"/>
</g>
<g enable-background="new    ">
	<path fill="#FFFFFF" d="M862.8,1054.4v5.7h-46v-5.7h5.4c6.8,0,8.4-3.8,5-13.4l-7.7-21.1h-34.7l-7.7,20.4c-3.3,8.9-2.4,14.2,6,14.2
		h4.7v5.7h-37.4v-5.7c8.9,0,12.1-2.9,16.9-15.2l32.6-83.4h13.7l32,83.7C849.5,1049.7,853.6,1054.1,862.8,1054.4z M816.2,1010.6
		l-13.6-37.5l-14.2,37.5H816.2z"/>
</g>
<g enable-background="new    ">
	<path fill="#FFFFFF" d="M923.1,1006.7c0,38.3-10.3,55.6-30,55.6c-21.4,0-31.2-20.1-31.2-56.8c0-35.6,8.9-55.3,30.5-55.3
		C913.1,950.2,923.1,969.6,923.1,1006.7z M869.4,999l46,0.3c-0.8-21.6-8.7-31.7-23.1-31.7C881.2,967.7,870.5,972.2,869.4,999z
		 M915.7,1012.9l-46.1,0.3c1.2,20.7,6.8,31.7,23.5,31.7C910.1,1044.9,914.8,1032.2,915.7,1012.9z"/>
</g>
<g enable-background="new    ">
	<path fill="#FFFFFF" d="M983.3,1080.9c4.8-20.4,7.1-33.5,7.1-56.7c0-8-0.8-20.5-12.4-20.5c-17.2,0-18.4,24-18.4,39.2
		c0,5.7,0,11.5,0.8,17.2H945c2.1-17.5,2.7-27.9,2.7-36.5c0-2.9,0-5.4-0.2-8.1c-0.5-11.9-2-15.5-7.7-15.5c-2.9,0-4.7,1.8-5.6,3.3
		l-2.7-1.4c0.8-7.8,4.7-15.7,13.1-15.7c9,0,12.2,8,12.2,17.3l-0.2,12.2h0.6c1.7-12.4,9.8-29.6,25.2-29.6c12.8,0,17.8,8.9,17.8,22.5
		v42.1c0,11.2,0.6,25.2,0.9,30.5c0.5,7.5-2.6,11.6-8.7,11.6C984.5,1092.8,981.8,1087.2,983.3,1080.9z M962.5,975.1l3.8-21.3
		c1.1-6,2.6-9,8-9c5.3,0,8.3,3.3,8.3,6.6c0,2.1-0.8,4.5-2.3,6.8l-12.5,19L962.5,975.1z"/>
</g>
<g enable-background="new    ">
	<path fill="#FFFFFF" d="M1076.1,988.3c-3.3,24.4-14.8,54.6-25.3,71.8h-11.9l-13.9-46.6c-3.2-10.7-4.5-13.6-9.5-13.6
		c-3,0-4.7,1.7-5.7,3.3l-2.7-1.4c0.9-9.2,5.4-15.7,13.7-15.7c9.5,0,12.7,5.6,15.8,18.8l10,41.6c5.9-12.7,13.6-40.9,16.1-58.4H1076.1
		z"/>
</g>
<g enable-background="new    ">
	<path fill="#FFFFFF" d="M1157.7,1044.1l2.7,1.4c-0.8,7.7-4.5,16.1-13.1,16.1c-6.9,0-13.1-3.8-13.1-18.1c0-1.4,0.2-3,0.3-4.5
		c-5.9,14.8-11.5,23.4-21.9,23.4c-18.4,0-24.3-21.7-24.3-35.9c0-24.3,11.2-40.3,27.1-40.3c15.7,0,21.4,14.6,23.5,26.5l5.9-24.4h17.2
		c-11.2,28.8-16.6,42.2-16.6,51.3c0,6.6,3.5,7.8,6.6,7.8C1155,1047.4,1156.8,1045.6,1157.7,1044.1z M1133.2,1027.2l1.4-4.1
		c-4.4-13.3-10.4-19.5-19.9-19.5c-10.1,0-19,6.5-19,21.7c0,11.6,6.8,19.5,16.9,19.5C1121.2,1044.9,1128.9,1039,1133.2,1027.2z"/>
</g>
<g enable-background="new    ">
	<path fill="#FFFFFF" d="M292.2,1182.8c0,16.4-14.2,30.3-36.6,30.3c-20.2,0-36.6-10.7-36.6-28.3c0-11.5,9-20.4,21.3-24.1
		c-10.6-5.9-18.2-15.5-18.2-26.5c0-18.4,16-29.9,35-29.9c18.8,0,33.8,10.3,33.8,27.6c0,10-8,18.8-20.2,23.1l1.5,0.8
		C285.3,1162.9,292.2,1171.2,292.2,1182.8z M276.4,1188.1c0-5.9-3.5-10.1-11.6-14.3l-16.7-8.9c-9.8,4.4-13.7,11.5-13.7,19
		c0,12.2,11.6,19.5,22.3,19.5C267.8,1203.3,276.4,1196.9,276.4,1188.1z M237.3,1128.6c0,6.8,4.8,11,13,15.4l11.9,6.5
		c8.1-3.8,14-10.4,14-19.3c0-10.1-8.1-17-19.9-17C245.8,1114.1,237.3,1119.8,237.3,1128.6z"/>
</g>
<g enable-background="new    ">
	<path fill="#FFFFFF" d="M305.6,1200.6c0-6.5,5-11.5,11.5-11.5c6.5,0,11.5,5,11.5,11.5c0,6.5-5,11.5-11.5,11.5
		C310.5,1212.1,305.6,1207.1,305.6,1200.6z"/>
</g>
<g enable-background="new    ">
	<path fill="#FFFFFF" d="M439.5,1169.3v15.1h-18.2v26.5h-16v-26.5h-45.7v-18.2l50.2-59.6h11.5v62.7H439.5z M405.2,1169.3v-43.4
		l-36.5,43.4H405.2z"/>
	<path fill="#FFFFFF" d="M451.4,1200.6c0-6.5,5-11.5,11.5-11.5s11.5,5,11.5,11.5c0,6.5-5,11.5-11.5,11.5S451.4,1207.1,451.4,1200.6z
		"/>
</g>
<g enable-background="new    ">
	<path fill="#FFFFFF" d="M490.2,1151.2h77.4v10.6h-77.4V1151.2z"/>
</g>
<g enable-background="new    ">
	<path fill="#FFFFFF" d="M595.7,1205.2h4.2c7.8,0,12.8-3.5,12.8-10.4v-63.5c0-5.3-3.3-6.2-8.3-4.1l-13.7,5.7v-10.1
		c10.1-4.5,24.4-12.4,32.3-17h5.7v89c0,6.9,5,10.4,12.8,10.4h3.5v5.7h-49.3V1205.2z"/>
</g>
<g enable-background="new    ">
	<path fill="#FFFFFF" d="M725.1,1178.2c0,19.9-14.6,35-35.7,35c-19.9,0-39.2-17.5-39.2-51.3c0-35.6,19-57.6,45.5-57.6
		c18.1,0,28.3,9.2,28.3,21.1c0,6.5-4.1,10.3-10,10.3c-4.8,0-8.7-3.3-8.7-9v-2.4c0-5.4-2.9-10.3-11.5-10.4
		c-20.8-0.2-27.1,24.6-27.1,42.7v0.5c5-7.5,14.3-11.9,24.3-11.9C712.9,1145,725.1,1157.7,725.1,1178.2z M707.2,1181.5
		c0-11.9-5-26.2-19-26.2c-11.2,0-17.3,9.8-17.3,21.3c0,11.8,6.3,26.5,19.5,26.5C701.3,1203,707.2,1192.9,707.2,1181.5z"/>
</g>
<g enable-background="new    ">
	<path fill="#FFFFFF" d="M738.3,1200.6c0-6.5,5-11.5,11.5-11.5c6.5,0,11.5,5,11.5,11.5c0,6.5-5,11.5-11.5,11.5
		C743.2,1212.1,738.3,1207.1,738.3,1200.6z"/>
</g>
<g enable-background="new    ">
	<path fill="#FFFFFF" d="M851,1123.7h-38.3c-7.4,0-12.4,2.6-14.8,11.5h-6.3l4.8-28.6h67.9v9.3l-44.9,95h-17.3L851,1123.7z"/>
</g>
<g enable-background="new    ">
	<path fill="#FFFFFF" d="M846.5,1200.6c0-6.5,5-11.5,11.5-11.5c6.5,0,11.5,5,11.5,11.5c0,6.5-5,11.5-11.5,11.5
		C851.4,1212.1,846.5,1207.1,846.5,1200.6z"/>
</g>
<g enable-background="new    ">
	<path fill="#FFFFFF" d="M976.2,1184.6l-5.7,26.2h-63.3v-4.1c2.3-14.2,17.5-25.5,30.8-36.9c10.6-9,19.6-18.5,19.6-30.2
		c0-11.3-6.5-19.5-19.1-19.5c-12.4,0-22,7.7-23.5,21h-0.6h-5.6c0-21.7,10.7-36.9,34.1-36.9c19.6,0,32.3,12.4,32.3,30.8
		c0,29.9-32.4,39.7-49.9,59.3h27.9c5,0,13.3-1.7,16.4-9.7H976.2z"/>
</g>
<g enable-background="new    ">
	<path fill="#FFFFFF" d="M991.5,1156.9c0-36.5,16.9-52.6,34.8-52.6c25.9,0,34.7,23.1,34.7,56.1c0,36.9-17,52.8-35,52.8
		C1001,1213.1,991.5,1190.1,991.5,1156.9z M1051.6,1160.4c0-25.2-9-36.3-25.3-36.3c-16.9,0-25.6,13.1-25.6,33
		c0,25.3,10.1,36.3,25.6,36.3C1043,1193.4,1051.6,1180.4,1051.6,1160.4z"/>
	<path fill="#FFFFFF" d="M1074.7,1205.2h4.2c7.8,0,12.8-3.5,12.8-10.4v-63.5c0-5.3-3.3-6.2-8.3-4.1l-13.7,5.7v-10.1
		c10.1-4.5,24.4-12.4,32.3-17h5.7v89c0,6.9,5,10.4,12.8,10.4h3.5v5.7h-49.3V1205.2z"/>
</g>
<g enable-background="new    ">
	<path fill="#FFFFFF" d="M1192.6,1123.7h-38.3c-7.4,0-12.4,2.6-14.8,11.5h-6.3l4.8-28.6h67.9v9.3l-44.9,95h-17.3L1192.6,1123.7z"/>
</g>
<g enable-background="new    ">
	<path fill="#FFFFFF" d="M294.8,1277.5l-30,28.5l34.7,35c9.3,9.3,17.3,14,21.4,14.9v5.7h-44.3v-5.7h2.7c3,0,4.7-2,4.7-4.1
		c0-1.8-1.1-3.8-3.8-6.6l-31.8-34.5v32.7c0,7.4,0.8,12.5,12.1,12.5h1.1v5.7h-43.9v-5.7h1.1c11.3,0,12.1-5.1,12.1-12.5v-67.9
		c0-7.4-0.8-12.5-12.1-12.5h-1.1v-5.7h43.9v5.7h-1.1c-11.3,0-12.1,5.1-12.1,12.5v33.9l35.6-34.7c3-2.9,4.4-5.6,4.4-7.7
		c0-2.4-1.8-4.1-5.7-4.1h-3.3v-5.7h42.1v5.7C312,1264,301.1,1271.6,294.8,1277.5z"/>
	<path fill="#FFFFFF" d="M327.3,1345.7c0-16,15.2-18.8,28-22.5l9-2.6v-11.9c0-8.7-4.8-13.7-12.5-13.7c-5.9,0-11.3,3.3-11.3,9
		c0,4.7,2.9,5.3,2.9,8c0,3.9-3.5,6.3-7.2,6.3c-4.8,0-8.9-3.8-8.9-10.6c0-9.8,8.6-20.1,26.1-20.1c15.4,0,25.8,7.7,25.6,23.5l-0.6,35
		c0,2.6,0.8,5,4.2,5c2.1,0,4.4-1.2,5.4-3l2.7,1.4c-0.3,4.4-2.7,14.2-13,14.2c-6,0-12.5-3.8-12.5-13.4c-3.3,7.4-9.2,13-19,13
		C336.2,1363.3,327.3,1355.8,327.3,1345.7z M364.4,1344.2v-16.9l-6.5,1.8c-8.9,2.6-15.5,4.8-15.5,12.5c0,5.1,4.1,9.2,9.8,9.2
		C358.1,1350.8,362.5,1346.9,364.4,1344.2z"/>
	<path fill="#FFFFFF" d="M399.9,1359.9l-1.5-22.5h7.5c0.2,10.3,6.5,18.4,16.4,18.4c6.2,0,11-3.5,11-9.7c0-5.6-4.4-8.4-9.3-10.9
		l-10.4-5c-8.9-4.2-14.8-10.6-14.8-19.5c0-14,11.9-23.1,26.1-23.1c11.2,0,17.3,2.4,19.9,3.8v18.7h-7.1c0-8.3-3.5-15.2-13.6-15.2
		c-6.8,0-12.1,4.5-12.1,10.9c0,3.3,2,6.6,7.8,9.3l10.6,4.8c11,5,16.1,10.9,16.1,20.5c0,13.6-11.5,23.4-26.5,23.4
		C410.4,1363.9,404.8,1361.8,399.9,1359.9z"/>
	<path fill="#FFFFFF" d="M460.2,1359.9l-1.5-22.5h7.5c0.2,10.3,6.5,18.4,16.4,18.4c6.2,0,11-3.5,11-9.7c0-5.6-4.4-8.4-9.3-10.9
		l-10.4-5c-8.9-4.2-14.8-10.6-14.8-19.5c0-14,11.9-23.1,26.1-23.1c11.2,0,17.3,2.4,19.9,3.8v18.7H498c0-8.3-3.5-15.2-13.6-15.2
		c-6.8,0-12.1,4.5-12.1,10.9c0,3.3,2,6.6,7.8,9.3l10.6,4.8c11,5,16.1,10.9,16.1,20.5c0,13.6-11.5,23.4-26.5,23.4
		C470.7,1363.9,465.2,1361.8,460.2,1359.9z"/>
	<path fill="#FFFFFF" d="M572.8,1335.7h4.5c-1.2,9.8-7.8,28.2-28.5,28.2c-16.7,0-31.4-13.7-31.4-36.3c0-22.8,14.3-39.8,33.5-39.8
		c15.4,0,26.4,10.7,26.4,26.2c0,1.1-0.2,2.7-0.3,3.3h-46.1c-0.2,1.4-0.2,2.7-0.2,3.8c0,14.6,8.6,26.8,23.4,26.8
		C563.9,1347.9,570,1342.4,572.8,1335.7z M531.8,1310.4h30.6c-0.2-6.9-3-15.1-13.4-15.1C540.4,1295.3,533.6,1301.8,531.8,1310.4z"/>
</g>
<g enable-background="new    ">
	<path fill="#FFFFFF" d="M624,1355.9v5.7h-36.3v-5.7c8,0,10.6-2.6,10.6-9.2v-74.6c0-6.6-3-8.9-9.2-8.9h-3.9v-5
		c7.1-1.1,19.5-4.5,24-6h4.4v15.2v79.3C613.4,1353.4,616,1355.9,624,1355.9z"/>
</g>
<g enable-background="new    ">
	<path fill="#FFFFFF" d="M693.5,1255.1h9.8l-44.8,108.9h-9.8L693.5,1255.1z"/>
</g>
<g enable-background="new    ">
	<path fill="#FFFFFF" d="M797.9,1277.5l-30,28.5l34.7,35c9.3,9.3,17.3,14,21.4,14.9v5.7h-44.3v-5.7h2.7c3,0,4.7-2,4.7-4.1
		c0-1.8-1.1-3.8-3.8-6.6l-31.8-34.5v32.7c0,7.4,0.8,12.5,12.1,12.5h1.1v5.7h-43.9v-5.7h1.1c11.3,0,12.1-5.1,12.1-12.5v-67.9
		c0-7.4-0.8-12.5-12.1-12.5h-1.1v-5.7h43.9v5.7h-1.1c-11.3,0-12.1,5.1-12.1,12.5v33.9l35.6-34.7c3-2.9,4.4-5.6,4.4-7.7
		c0-2.4-1.8-4.1-5.7-4.1h-3.3v-5.7h42.1v5.7C815.1,1264,804.3,1271.6,797.9,1277.5z"/>
</g>
<g enable-background="new    ">
	<path fill="#FFFFFF" d="M896.3,1345.7l2.7,1.4c-0.8,7.7-4.5,16.1-13.1,16.1c-6.9,0-13.1-3.8-13.1-18.1c0-1.4,0.2-3,0.3-4.5
		c-5.9,14.8-11.5,23.4-21.9,23.4c-18.4,0-24.3-21.7-24.3-35.9c0-24.3,11.2-40.3,27.1-40.3c15.7,0,21.4,14.6,23.5,26.5l5.9-24.4h17.2
		c-11.2,28.8-16.6,42.2-16.6,51.3c0,6.6,3.5,7.8,6.6,7.8C893.6,1349,895.4,1347.2,896.3,1345.7z M871.9,1328.8l1.4-4.1
		c-4.4-13.3-10.4-19.5-19.9-19.5c-10.1,0-19,6.5-19,21.7c0,11.6,6.8,19.5,16.9,19.5C859.8,1346.4,867.5,1340.6,871.9,1328.8z
		 M858.4,1278.7l-5.3-2.1l3.8-21.3c1.1-6,2.6-9,8-9c5.3,0,8.3,3.3,8.3,6.6c0,2.1-0.8,4.5-2.3,6.8L858.4,1278.7z"/>
	<path fill="#FFFFFF" d="M908.2,1329.6c0-23.2,15.1-39.7,36.6-39.7h33.3v17.5h-17.3c5,5.4,7.4,13,7.4,20.1
		c0,21.4-13.1,36.5-30.5,36.5C918.3,1363.9,908.2,1348.2,908.2,1329.6z M960.5,1323.2c0-6.3-3-12.8-6.6-15.8h-11.6
		c-22,0-26.5,13.3-26.5,20.7c0,11.3,8.4,18.4,22,18.4C948.3,1346.4,960.5,1340.7,960.5,1323.2z"/>
</g>
<g enable-background="new    ">
	<path fill="#FFFFFF" d="M1044.8,1345.8c-3.8,8.1-12.5,18.1-31.2,18.1c-19,0-28.5-10-28.5-21c0-7.2,4.8-13.9,12.8-16.7
		c-7.1-3.8-10.6-9.7-10.6-16.7c0-13.6,10.9-21.7,29.7-21.7c13.7,0,22.2,3.2,25.5,5.3l-4.2,15.7c-6.5-2.7-14-4.2-23.4-4.2
		c-10.6,0-20.1,2.6-20.1,8.1c0,4.4,4.8,7.1,12.4,9c6.8-2.9,10.7-3.3,12.8-3.3c5,0,7.5,3.9,7.5,7.8c0,4.5-3.2,8.3-7.2,8.3
		c-3.2,0-8.7-2.1-13-4.1c-8.7,1.7-13.6,5.7-13.6,9.5c0,4.7,8.7,7.2,21.4,7.2c11.9,0,20.8-2.3,27.1-6L1044.8,1345.8z"/>
</g>
<g enable-background="new    ">
	<path fill="#FFFFFF" d="M1122.4,1347c-0.9,9.3-5.7,16.1-13.1,16.1s-11.3-3.8-14.6-15.2l-10.4-36.8l-20.2,50.5h-17.8l31.7-72.5
		l-1.7-5.9c-3.9-14-7.4-17.3-13.9-17.3c-3.8,0-7.1,1.4-9.5,5l-2.7-1.4c0.2-7.8,4.5-17.8,14.6-17.8c11.6,0,15.8,11.3,19,21.9
		l18.7,62.7c3,10.1,5.9,12.7,11.2,12.7c2.9,0,4.8-1.2,6-3.3L1122.4,1347z"/>
</g>
<g enable-background="new    ">
	<path fill="#FFFFFF" d="M221.6,1506.7h4.2c7.8,0,12.8-3.5,12.8-10.4v-63.5c0-5.3-3.3-6.2-8.3-4.1l-13.7,5.7v-10.1
		c10.1-4.5,24.4-12.4,32.3-17h5.7v89c0,6.9,5,10.4,12.8,10.4h3.5v5.7h-49.3V1506.7z"/>
</g>
<g enable-background="new    ">
	<path fill="#FFFFFF" d="M277,1458.5c0-36.5,16.9-52.6,34.8-52.6c25.9,0,34.7,23.1,34.7,56.1c0,36.9-17,52.8-35,52.8
		C286.5,1514.7,277,1491.7,277,1458.5z M337.1,1461.9c0-25.2-9-36.3-25.3-36.3c-16.9,0-25.6,13.1-25.6,33
		c0,25.3,10.1,36.3,25.6,36.3C328.5,1495,337.1,1482,337.1,1461.9z"/>
</g>
<g enable-background="new    ">
	<path fill="#FFFFFF" d="M355.6,1502.2c0-6.5,5-11.5,11.5-11.5c6.5,0,11.5,5,11.5,11.5c0,6.5-5,11.5-11.5,11.5
		C360.6,1513.7,355.6,1508.7,355.6,1502.2z"/>
</g>
<g enable-background="new    ">
	<path fill="#FFFFFF" d="M481,1479.7c0,19.9-14.6,35-35.7,35c-19.9,0-39.2-17.5-39.2-51.3c0-35.6,19-57.6,45.5-57.6
		c18.1,0,28.3,9.2,28.3,21.1c0,6.5-4.1,10.3-10,10.3c-4.8,0-8.7-3.3-8.7-9v-2.4c0-5.4-2.9-10.3-11.5-10.4
		c-20.8-0.2-27.1,24.6-27.1,42.7v0.5c5-7.5,14.3-11.9,24.3-11.9C468.8,1446.6,481,1459.2,481,1479.7z M463.1,1483.1
		c0-11.9-5-26.2-19-26.2c-11.2,0-17.3,9.8-17.3,21.3c0,11.8,6.3,26.5,19.5,26.5C457.2,1504.6,463.1,1494.5,463.1,1483.1z"/>
	<path fill="#FFFFFF" d="M494,1502.2c0-6.5,5-11.5,11.5-11.5s11.5,5,11.5,11.5c0,6.5-5,11.5-11.5,11.5S494,1508.7,494,1502.2z"/>
</g>
<g enable-background="new    ">
	<path fill="#FFFFFF" d="M536.5,1452.7h77.4v10.6h-77.4V1452.7z"/>
</g>
<g enable-background="new    ">
	<path fill="#FFFFFF" d="M636,1506.7h4.2c7.8,0,12.8-3.5,12.8-10.4v-63.5c0-5.3-3.3-6.2-8.3-4.1l-13.7,5.7v-10.1
		c10.1-4.5,24.4-12.4,32.3-17h5.7v89c0,6.9,5,10.4,12.8,10.4h3.5v5.7H636V1506.7z"/>
</g>
<g enable-background="new    ">
	<path fill="#FFFFFF" d="M746.7,1425.3h-38.3c-7.4,0-12.4,2.6-14.8,11.5h-6.3l4.8-28.6h67.9v9.3l-44.9,95h-17.3L746.7,1425.3z"/>
</g>
<g enable-background="new    ">
	<path fill="#FFFFFF" d="M748.2,1502.2c0-6.5,5-11.5,11.5-11.5c6.5,0,11.5,5,11.5,11.5c0,6.5-5,11.5-11.5,11.5
		C753.1,1513.7,748.2,1508.7,748.2,1502.2z"/>
</g>
<g enable-background="new    ">
	<path fill="#FFFFFF" d="M881.3,1459.1c0,33.5-15.4,55.6-41.2,55.6c-17.5,0-30.2-9.7-30.2-22.5c0-6.5,4.1-11,10.3-11
		c5,0,7.5,3.2,7.5,7.4c0,1.2-0.3,2.6-0.3,4.7c0,4.7,3.6,11.5,13.7,11.5c19.9,0,23.4-24.1,23.4-41.6c0-1.2,0-3-0.2-5
		c-3.8,9.3-13,16.1-24.7,16.1c-21,0-32.7-15.1-32.7-33.2c0-24,17.5-35.3,35-35.3C864.5,1405.9,881.3,1422.9,881.3,1459.1z
		 M860.1,1442c0-11.9-4.8-27.1-19-27.1c-11.6,0-16.4,10.4-16.4,21.9c0,11.6,5.3,26.8,18.8,26.8
		C854.6,1463.6,860.1,1453.4,860.1,1442z"/>
</g>
<g enable-background="new    ">
	<path fill="#FFFFFF" d="M888,1502.2c0-6.5,5-11.5,11.5-11.5c6.5,0,11.5,5,11.5,11.5c0,6.5-5,11.5-11.5,11.5
		C893,1513.7,888,1508.7,888,1502.2z"/>
</g>
<g enable-background="new    ">
	<path fill="#FFFFFF" d="M1015.1,1486.2l-5.7,26.2h-63.3v-4.1c2.3-14.2,17.5-25.5,30.8-36.9c10.6-9,19.6-18.5,19.6-30.2
		c0-11.3-6.5-19.5-19.1-19.5c-12.4,0-22,7.7-23.5,21h-0.6h-5.6c0-21.7,10.7-36.9,34.1-36.9c19.6,0,32.3,12.4,32.3,30.8
		c0,29.9-32.4,39.7-49.9,59.3h27.9c5,0,13.3-1.7,16.4-9.7H1015.1z"/>
	<path fill="#FFFFFF" d="M1027.4,1458.5c0-36.5,16.9-52.6,34.8-52.6c25.9,0,34.7,23.1,34.7,56.1c0,36.9-17,52.8-35,52.8
		C1036.8,1514.7,1027.4,1491.7,1027.4,1458.5z M1087.5,1461.9c0-25.2-9-36.3-25.3-36.3c-16.9,0-25.6,13.1-25.6,33
		c0,25.3,10.1,36.3,25.6,36.3C1078.9,1495,1087.5,1482,1087.5,1461.9z"/>
</g>
<g enable-background="new    ">
	<path fill="#FFFFFF" d="M1117.9,1506.7h4.2c7.8,0,12.8-3.5,12.8-10.4v-63.5c0-5.3-3.3-6.2-8.3-4.1l-13.7,5.7v-10.1
		c10.1-4.5,24.4-12.4,32.3-17h5.7v89c0,6.9,5,10.4,12.8,10.4h3.5v5.7h-49.3V1506.7z"/>
</g>
<g enable-background="new    ">
	<path fill="#FFFFFF" d="M1231.6,1425.3h-38.3c-7.4,0-12.4,2.6-14.8,11.5h-6.3l4.8-28.6h67.9v9.3l-44.9,95h-17.3L1231.6,1425.3z"/>
</g>
<path fill="#FFFFFF" stroke="#FFFFFF" stroke-width="5" stroke-miterlimit="10" d="M1859.3,994c16.2,0,29.5,12.8,29.5,28.7
	c0,15.8-13.3,28.7-29.5,28.7s-29.5-12.8-29.5-28.7C1829.8,1006.8,1843,994,1859.3,994"/>
<path fill="#FFFFFF" stroke="#FFFFFF" stroke-width="5" stroke-miterlimit="10" d="M1856.3,879c16.2,0,29.5-12.8,29.5-28.7
	s-13.3-28.7-29.5-28.7s-29.5,12.8-29.5,28.7S1839.6,879,1856.3,879"/>
</svg>
